<svg id="Layer_1" data-name="Layer 1" xmlns="http://www.w3.org/2000/svg" viewBox="0 0 1000 1000"><defs><style>.cls-1{fill:#1789ca;}.cls-2{fill:#f6c43d;}.cls-3{fill:#da2828;}.cls-4{font-size:31.99px;font-family:Europa-Bold;font-weight:700;letter-spacing:0.01em;}.cls-5{letter-spacing:-0.01em;}.cls-6{letter-spacing:-0.06em;}.cls-7{letter-spacing:-0.01em;}.cls-8{letter-spacing:0.01em;}</style></defs><path d="M396.53,492.43s-6.95-8.76-20.63-8.76c-16.24,0-27.36,14.21-27.36,30.14S359.66,544,375.9,544c13.58,0,21.59-9.94,21.59-9.94l6.09,6.2A38,38,0,0,1,375.9,552.5c-21.59,0-37-17.1-37-38.69s15.39-38.69,37-38.69a36,36,0,0,1,26.83,11.43Z"/><path d="M461.08,526.53c0,14.53-10.9,26-25.44,26s-25.43-11.44-25.43-26,10.9-26,25.43-26S461.08,512,461.08,526.53Zm-9,0c0-9.73-6.52-17.64-16.46-17.64s-16.46,7.91-16.46,17.64,6.52,17.63,16.46,17.63S452.1,536.25,452.1,526.53Z"/><path d="M508.85,507.93V470.41h9v80.81H509.6v-7.16s-4.81,8.44-16.67,8.44c-13.36,0-23.94-11.44-23.94-26s10.58-26,23.94-26C503.83,500.55,508.85,507.93,508.85,507.93Zm0,9.51s-4.7-8.55-14.53-8.55S478,516.8,478,526.53s6.3,17.63,16.35,17.63c9.83,0,14.53-8.55,14.53-8.55Z"/><path d="M579.82,526.85a27.11,27.11,0,0,1-.11,2.88H539.85c.53,7.48,7.69,14.43,17,14.43a19.07,19.07,0,0,0,14.86-7.27l5.66,5.88s-7.48,9.73-20.52,9.73c-15,0-25.76-11.33-25.76-26,0-14.43,9.84-26,24.69-26C569.56,500.55,579.82,510.92,579.82,526.85Zm-8.76-4.6a14.87,14.87,0,0,0-15.29-13.36,15.31,15.31,0,0,0-15.71,13.36Z"/><path d="M586.44,501.84H596.7v-17c0-10.47,8.13-15.71,15.18-15.71A20.42,20.42,0,0,1,622.25,472l-3.31,7.37a12.82,12.82,0,0,0-5.78-1.92c-4.81,0-7.48,3.1-7.48,7.91v16.46h12.83V510H605.68v41.26h-9V510H586.44Z"/><path d="M675.05,526.53c0,14.53-10.91,26-25.44,26s-25.44-11.44-25.44-26,10.9-26,25.44-26S675.05,512,675.05,526.53Zm-9,0c0-9.73-6.52-17.64-16.46-17.64s-16.46,7.91-16.46,17.64,6.52,17.63,16.46,17.63S666.07,536.25,666.07,526.53Z"/><path d="M715.66,501.84,712.34,510a12.48,12.48,0,0,0-5.66-1.07c-7.8,0-11.33,8.34-11.33,8.34v34h-9V501.84h8.34v7.59s4.38-8.88,13.79-8.88A20.54,20.54,0,0,1,715.66,501.84Z"/><path d="M764.29,543a26.63,26.63,0,0,1-20.2,9.51c-14.54,0-25.44-11.44-25.44-26s10.9-26,25.44-26a26.44,26.44,0,0,1,19.66,8.88l-6.09,5.45a18.24,18.24,0,0,0-13.57-6c-9.94,0-16.46,7.91-16.46,17.64s6.52,17.63,16.46,17.63a18.13,18.13,0,0,0,14.43-7Z"/><path d="M819.44,526.85a27.11,27.11,0,0,1-.11,2.88H779.46c.54,7.48,7.7,14.43,17,14.43a19.06,19.06,0,0,0,14.85-7.27l5.67,5.88s-7.48,9.73-20.52,9.73c-15,0-25.76-11.33-25.76-26,0-14.43,9.83-26,24.69-26C809.18,500.55,819.44,510.92,819.44,526.85Zm-8.77-4.6a14.86,14.86,0,0,0-15.28-13.36,15.31,15.31,0,0,0-15.71,13.36Z"/><path d="M833.75,536.36s5.24,8,15,8c5,0,10.68-2.14,10.68-6.1,0-4.27-3.63-6.41-11.22-7.91-10.58-2.13-18.06-6.3-18.06-15.6,0-7.16,7.16-14.22,18.17-14.22A25.67,25.67,0,0,1,866.57,508l-5.88,6.09s-4.92-5.45-12.4-5.45c-6.31,0-9.41,3.1-9.41,6.3,0,3.74,3.85,5.78,12,7.49,9.41,2,17.43,5.55,17.43,15.6,0,9.51-10,14.43-19.56,14.43a27.07,27.07,0,0,1-21.17-10.37Z"/><polygon class="cls-1" points="285.99 393.7 263.64 460.74 285.99 438.36 285.99 393.7"/><polygon class="cls-1" points="233.06 552.5 285.99 552.5 285.99 499.52 246.3 512.77 233.06 552.5"/><polygon class="cls-1" points="248.14 507.25 285.99 494.61 285.99 444.96 260.34 470.64 248.14 507.25"/><polygon class="cls-2" points="228.15 552.5 240.77 514.62 204.25 526.82 178.6 552.5 228.15 552.5"/><polygon class="cls-3" points="172.02 552.5 194.37 530.12 127.34 552.5 172.02 552.5"/><polygon class="cls-2" points="211.85 519.36 242.62 509.09 252.89 478.27 211.85 519.36"/><text class="cls-4" transform="translate(523.66 598.17)">Sponso<tspan class="cls-5" x="107.26" y="0">r</tspan><tspan x="119.29" y="0">ed by </tspan><tspan class="cls-6" x="211.48" y="0">T</tspan><tspan x="226.61" y="0">eleg</tspan><tspan class="cls-7" x="288.25" y="0">r</tspan><tspan class="cls-8" x="300.4" y="0">am</tspan></text></svg>